<svg viewBox="0 0 100 100" xmlns="http://www.w3.org/2000/svg"><path fill="#8B0000" d="M82.2,43.2c-0.4-11.8-9.7-21.1-21.5-21.5c-3.8-0.1-7.4,0.7-10.6,2.2c-2.6-1.2-5.5-1.8-8.5-1.8c-11.8,0-21.5,9.7-21.5,21.5c0,0.2,0,0.3,0,0.5c-1,0.1-1.9,0.2-2.9,0.4c-10.8,2.3-18.4,12.5-18.4,23.9c0,13.5,10.9,24.4,24.4,24.4h38.1c13.5,0,24.4-10.9,24.4-24.4C100,55.2,92.3,45.4,82.2,43.2z"/><path fill="#006400" d="M60.6,21.7c-0.1-1.6-0.3-3.2-0.5-4.8c-0.8-6.1-6-10.7-12.1-10.7c-6.1,0-11.3,4.6-12.1,10.7c-0.2,1.6-0.4,3.2-0.5,4.8c-0.1,0.8,0.5,1.5,1.3,1.5h22.6C60.1,23.2,60.7,22.5,60.6,21.7z"/></svg>